<mxfile host="app.diagrams.net" modified="2022-07-10T09:52:24.895Z" agent="5.0 (Windows)" etag="bR6Hcatt0_aak30_UrsM" version="20.0.4" type="github">
  <diagram id="C5RBs43oDa-KdzZeNtuy" name="Page-1">
    <mxGraphModel dx="1422" dy="819" grid="1" gridSize="10" guides="1" tooltips="1" connect="1" arrows="1" fold="1" page="1" pageScale="1" pageWidth="827" pageHeight="1169" math="0" shadow="0">
      <root>
        <mxCell id="WIyWlLk6GJQsqaUBKTNV-0" />
        <mxCell id="WIyWlLk6GJQsqaUBKTNV-1" parent="WIyWlLk6GJQsqaUBKTNV-0" />
        <mxCell id="WIyWlLk6GJQsqaUBKTNV-2" value="" style="rounded=0;html=1;jettySize=auto;orthogonalLoop=1;fontSize=11;endArrow=block;endFill=0;endSize=8;strokeWidth=1;shadow=0;labelBackgroundColor=none;edgeStyle=orthogonalEdgeStyle;" parent="WIyWlLk6GJQsqaUBKTNV-1" source="WIyWlLk6GJQsqaUBKTNV-3" target="WIyWlLk6GJQsqaUBKTNV-6" edge="1">
          <mxGeometry relative="1" as="geometry" />
        </mxCell>
        <mxCell id="WIyWlLk6GJQsqaUBKTNV-3" value="Start" style="rounded=1;whiteSpace=wrap;html=1;fontSize=12;glass=0;strokeWidth=1;shadow=0;" parent="WIyWlLk6GJQsqaUBKTNV-1" vertex="1">
          <mxGeometry x="170" y="80" width="120" height="40" as="geometry" />
        </mxCell>
        <mxCell id="7J9RRrQDICWOLUso8od0-8" style="edgeStyle=orthogonalEdgeStyle;rounded=0;orthogonalLoop=1;jettySize=auto;html=1;exitX=0.5;exitY=1;exitDx=0;exitDy=0;" edge="1" parent="WIyWlLk6GJQsqaUBKTNV-1" source="WIyWlLk6GJQsqaUBKTNV-6" target="7J9RRrQDICWOLUso8od0-4">
          <mxGeometry relative="1" as="geometry" />
        </mxCell>
        <mxCell id="7J9RRrQDICWOLUso8od0-11" value="Yes" style="edgeLabel;html=1;align=center;verticalAlign=middle;resizable=0;points=[];" vertex="1" connectable="0" parent="7J9RRrQDICWOLUso8od0-8">
          <mxGeometry x="-0.2517" relative="1" as="geometry">
            <mxPoint x="10" as="offset" />
          </mxGeometry>
        </mxCell>
        <mxCell id="7J9RRrQDICWOLUso8od0-9" style="edgeStyle=orthogonalEdgeStyle;rounded=0;orthogonalLoop=1;jettySize=auto;html=1;entryX=0;entryY=0.5;entryDx=0;entryDy=0;" edge="1" parent="WIyWlLk6GJQsqaUBKTNV-1" source="WIyWlLk6GJQsqaUBKTNV-6" target="7J9RRrQDICWOLUso8od0-3">
          <mxGeometry relative="1" as="geometry" />
        </mxCell>
        <mxCell id="7J9RRrQDICWOLUso8od0-10" value="No" style="edgeStyle=orthogonalEdgeStyle;rounded=0;orthogonalLoop=1;jettySize=auto;html=1;entryX=1;entryY=0.5;entryDx=0;entryDy=0;" edge="1" parent="WIyWlLk6GJQsqaUBKTNV-1" source="WIyWlLk6GJQsqaUBKTNV-6" target="WIyWlLk6GJQsqaUBKTNV-7">
          <mxGeometry y="-10" relative="1" as="geometry">
            <mxPoint as="offset" />
          </mxGeometry>
        </mxCell>
        <mxCell id="WIyWlLk6GJQsqaUBKTNV-6" value="Enter IP:PORT" style="rhombus;whiteSpace=wrap;html=1;shadow=0;fontFamily=Helvetica;fontSize=12;align=center;strokeWidth=1;spacing=6;spacingTop=-4;" parent="WIyWlLk6GJQsqaUBKTNV-1" vertex="1">
          <mxGeometry x="180" y="170" width="100" height="80" as="geometry" />
        </mxCell>
        <mxCell id="WIyWlLk6GJQsqaUBKTNV-7" value="Toast(wrong input)" style="rounded=1;whiteSpace=wrap;html=1;fontSize=12;glass=0;strokeWidth=1;shadow=0;" parent="WIyWlLk6GJQsqaUBKTNV-1" vertex="1">
          <mxGeometry x="10" y="190" width="120" height="40" as="geometry" />
        </mxCell>
        <mxCell id="7J9RRrQDICWOLUso8od0-5" value="" style="edgeStyle=orthogonalEdgeStyle;rounded=0;orthogonalLoop=1;jettySize=auto;html=1;" edge="1" parent="WIyWlLk6GJQsqaUBKTNV-1" source="7J9RRrQDICWOLUso8od0-3" target="7J9RRrQDICWOLUso8od0-4">
          <mxGeometry relative="1" as="geometry">
            <Array as="points">
              <mxPoint x="393" y="240" />
              <mxPoint x="290" y="240" />
              <mxPoint x="290" y="350" />
            </Array>
          </mxGeometry>
        </mxCell>
        <mxCell id="7J9RRrQDICWOLUso8od0-7" value="Status" style="edgeLabel;html=1;align=center;verticalAlign=middle;resizable=0;points=[];" vertex="1" connectable="0" parent="7J9RRrQDICWOLUso8od0-5">
          <mxGeometry x="-0.334" y="-1" relative="1" as="geometry">
            <mxPoint x="11" y="11" as="offset" />
          </mxGeometry>
        </mxCell>
        <mxCell id="7J9RRrQDICWOLUso8od0-3" value="Demo mode (checkbox)" style="rounded=1;whiteSpace=wrap;html=1;" vertex="1" parent="WIyWlLk6GJQsqaUBKTNV-1">
          <mxGeometry x="360" y="185" width="66" height="50" as="geometry" />
        </mxCell>
        <mxCell id="7J9RRrQDICWOLUso8od0-4" value="Check" style="whiteSpace=wrap;html=1;rounded=1;" vertex="1" parent="WIyWlLk6GJQsqaUBKTNV-1">
          <mxGeometry x="195" y="330" width="70" height="30" as="geometry" />
        </mxCell>
        <mxCell id="7J9RRrQDICWOLUso8od0-12" value="" style="endArrow=none;dashed=1;html=1;rounded=0;entryX=0.004;entryY=0.2;entryDx=0;entryDy=0;entryPerimeter=0;" edge="1" parent="WIyWlLk6GJQsqaUBKTNV-1" target="7J9RRrQDICWOLUso8od0-20">
          <mxGeometry width="50" height="50" relative="1" as="geometry">
            <mxPoint x="230" y="400" as="sourcePoint" />
            <mxPoint x="620" y="400" as="targetPoint" />
          </mxGeometry>
        </mxCell>
        <mxCell id="7J9RRrQDICWOLUso8od0-14" value="Send packet" style="edgeLabel;html=1;align=center;verticalAlign=middle;resizable=0;points=[];" vertex="1" connectable="0" parent="7J9RRrQDICWOLUso8od0-12">
          <mxGeometry x="-0.5825" y="-3" relative="1" as="geometry">
            <mxPoint x="9" y="-13" as="offset" />
          </mxGeometry>
        </mxCell>
        <mxCell id="7J9RRrQDICWOLUso8od0-13" value="" style="endArrow=none;dashed=1;html=1;dashPattern=1 3;strokeWidth=2;rounded=0;entryX=0.5;entryY=1;entryDx=0;entryDy=0;" edge="1" parent="WIyWlLk6GJQsqaUBKTNV-1" target="7J9RRrQDICWOLUso8od0-4">
          <mxGeometry width="50" height="50" relative="1" as="geometry">
            <mxPoint x="230" y="400" as="sourcePoint" />
            <mxPoint x="270" y="280" as="targetPoint" />
          </mxGeometry>
        </mxCell>
        <mxCell id="7J9RRrQDICWOLUso8od0-15" value="" style="endArrow=none;dashed=1;html=1;rounded=0;entryX=-0.016;entryY=0.588;entryDx=0;entryDy=0;entryPerimeter=0;" edge="1" parent="WIyWlLk6GJQsqaUBKTNV-1" target="7J9RRrQDICWOLUso8od0-20">
          <mxGeometry width="50" height="50" relative="1" as="geometry">
            <mxPoint x="230" y="440" as="sourcePoint" />
            <mxPoint x="450" y="440" as="targetPoint" />
          </mxGeometry>
        </mxCell>
        <mxCell id="7J9RRrQDICWOLUso8od0-18" value="" style="endArrow=classic;html=1;rounded=0;entryX=0.5;entryY=0;entryDx=0;entryDy=0;" edge="1" parent="WIyWlLk6GJQsqaUBKTNV-1">
          <mxGeometry width="50" height="50" relative="1" as="geometry">
            <mxPoint x="230" y="440" as="sourcePoint" />
            <mxPoint x="230" y="480" as="targetPoint" />
          </mxGeometry>
        </mxCell>
        <mxCell id="7J9RRrQDICWOLUso8od0-19" value="ACK packet/No reply" style="text;html=1;align=center;verticalAlign=middle;resizable=0;points=[];autosize=1;strokeColor=none;fillColor=none;" vertex="1" parent="WIyWlLk6GJQsqaUBKTNV-1">
          <mxGeometry x="280" y="440" width="130" height="30" as="geometry" />
        </mxCell>
        <mxCell id="7J9RRrQDICWOLUso8od0-20" value="&lt;div&gt;REMOTE&lt;/div&gt;&lt;div&gt;PC&lt;br&gt;SERVER&lt;br&gt;&lt;/div&gt;" style="whiteSpace=wrap;html=1;aspect=fixed;" vertex="1" parent="WIyWlLk6GJQsqaUBKTNV-1">
          <mxGeometry x="459" y="380" width="100" height="100" as="geometry" />
        </mxCell>
        <mxCell id="7J9RRrQDICWOLUso8od0-23" value="" style="edgeStyle=orthogonalEdgeStyle;rounded=0;orthogonalLoop=1;jettySize=auto;html=1;" edge="1" parent="WIyWlLk6GJQsqaUBKTNV-1" source="7J9RRrQDICWOLUso8od0-21" target="7J9RRrQDICWOLUso8od0-22">
          <mxGeometry relative="1" as="geometry" />
        </mxCell>
        <mxCell id="7J9RRrQDICWOLUso8od0-26" value="" style="edgeStyle=orthogonalEdgeStyle;rounded=0;orthogonalLoop=1;jettySize=auto;html=1;entryX=-0.015;entryY=0.501;entryDx=0;entryDy=0;entryPerimeter=0;" edge="1" parent="WIyWlLk6GJQsqaUBKTNV-1" source="7J9RRrQDICWOLUso8od0-21" target="7J9RRrQDICWOLUso8od0-27">
          <mxGeometry relative="1" as="geometry">
            <mxPoint x="336" y="520" as="targetPoint" />
          </mxGeometry>
        </mxCell>
        <mxCell id="7J9RRrQDICWOLUso8od0-46" value="Yes" style="edgeLabel;html=1;align=center;verticalAlign=middle;resizable=0;points=[];" vertex="1" connectable="0" parent="7J9RRrQDICWOLUso8od0-26">
          <mxGeometry x="-0.2491" y="-2" relative="1" as="geometry">
            <mxPoint x="1" y="-12" as="offset" />
          </mxGeometry>
        </mxCell>
        <mxCell id="7J9RRrQDICWOLUso8od0-30" value="" style="edgeStyle=orthogonalEdgeStyle;rounded=0;orthogonalLoop=1;jettySize=auto;html=1;" edge="1" parent="WIyWlLk6GJQsqaUBKTNV-1" source="7J9RRrQDICWOLUso8od0-21" target="7J9RRrQDICWOLUso8od0-29">
          <mxGeometry relative="1" as="geometry" />
        </mxCell>
        <mxCell id="7J9RRrQDICWOLUso8od0-67" value="" style="edgeStyle=orthogonalEdgeStyle;rounded=0;orthogonalLoop=1;jettySize=auto;html=1;entryX=0.5;entryY=0;entryDx=0;entryDy=0;" edge="1" parent="WIyWlLk6GJQsqaUBKTNV-1" source="7J9RRrQDICWOLUso8od0-21" target="7J9RRrQDICWOLUso8od0-68">
          <mxGeometry relative="1" as="geometry">
            <mxPoint x="340" y="575" as="targetPoint" />
          </mxGeometry>
        </mxCell>
        <mxCell id="7J9RRrQDICWOLUso8od0-21" value="&lt;div&gt;Check&lt;/div&gt;&lt;div&gt;Packet&lt;br&gt;&lt;/div&gt;" style="rhombus;whiteSpace=wrap;html=1;" vertex="1" parent="WIyWlLk6GJQsqaUBKTNV-1">
          <mxGeometry x="190" y="480" width="80" height="80" as="geometry" />
        </mxCell>
        <mxCell id="7J9RRrQDICWOLUso8od0-22" value="Toast(Device offline)" style="whiteSpace=wrap;html=1;rounded=1;" vertex="1" parent="WIyWlLk6GJQsqaUBKTNV-1">
          <mxGeometry x="20" y="500" width="90" height="40" as="geometry" />
        </mxCell>
        <mxCell id="7J9RRrQDICWOLUso8od0-24" value="No" style="text;html=1;align=center;verticalAlign=middle;resizable=0;points=[];autosize=1;strokeColor=none;fillColor=none;" vertex="1" parent="WIyWlLk6GJQsqaUBKTNV-1">
          <mxGeometry x="140" y="495" width="40" height="30" as="geometry" />
        </mxCell>
        <mxCell id="7J9RRrQDICWOLUso8od0-27" value="&lt;div&gt;Enable Time input field , Submit button&lt;/div&gt;&lt;div&gt;Update device status on text view&lt;br&gt;&lt;/div&gt;" style="shape=process;whiteSpace=wrap;html=1;backgroundOutline=1;" vertex="1" parent="WIyWlLk6GJQsqaUBKTNV-1">
          <mxGeometry x="380" y="490" width="200" height="60" as="geometry" />
        </mxCell>
        <mxCell id="7J9RRrQDICWOLUso8od0-34" value="" style="edgeStyle=orthogonalEdgeStyle;rounded=0;orthogonalLoop=1;jettySize=auto;html=1;" edge="1" parent="WIyWlLk6GJQsqaUBKTNV-1" source="7J9RRrQDICWOLUso8od0-29" target="7J9RRrQDICWOLUso8od0-33">
          <mxGeometry relative="1" as="geometry" />
        </mxCell>
        <mxCell id="7J9RRrQDICWOLUso8od0-29" value="Enter time" style="whiteSpace=wrap;html=1;" vertex="1" parent="WIyWlLk6GJQsqaUBKTNV-1">
          <mxGeometry x="180" y="600" width="100" height="30" as="geometry" />
        </mxCell>
        <mxCell id="7J9RRrQDICWOLUso8od0-36" value="" style="edgeStyle=orthogonalEdgeStyle;rounded=0;orthogonalLoop=1;jettySize=auto;html=1;" edge="1" parent="WIyWlLk6GJQsqaUBKTNV-1" source="7J9RRrQDICWOLUso8od0-33" target="7J9RRrQDICWOLUso8od0-35">
          <mxGeometry relative="1" as="geometry" />
        </mxCell>
        <mxCell id="7J9RRrQDICWOLUso8od0-37" value="" style="edgeStyle=orthogonalEdgeStyle;rounded=0;orthogonalLoop=1;jettySize=auto;html=1;" edge="1" parent="WIyWlLk6GJQsqaUBKTNV-1" source="7J9RRrQDICWOLUso8od0-33" target="7J9RRrQDICWOLUso8od0-35">
          <mxGeometry relative="1" as="geometry" />
        </mxCell>
        <mxCell id="7J9RRrQDICWOLUso8od0-38" value="No" style="edgeLabel;html=1;align=center;verticalAlign=middle;resizable=0;points=[];" vertex="1" connectable="0" parent="7J9RRrQDICWOLUso8od0-37">
          <mxGeometry x="-0.2612" y="-2" relative="1" as="geometry">
            <mxPoint x="-4" y="-15" as="offset" />
          </mxGeometry>
        </mxCell>
        <mxCell id="7J9RRrQDICWOLUso8od0-40" style="edgeStyle=orthogonalEdgeStyle;rounded=0;orthogonalLoop=1;jettySize=auto;html=1;exitX=1;exitY=0.5;exitDx=0;exitDy=0;entryX=0;entryY=0.25;entryDx=0;entryDy=0;dashed=1;" edge="1" parent="WIyWlLk6GJQsqaUBKTNV-1" source="7J9RRrQDICWOLUso8od0-33" target="7J9RRrQDICWOLUso8od0-39">
          <mxGeometry relative="1" as="geometry" />
        </mxCell>
        <mxCell id="7J9RRrQDICWOLUso8od0-33" value="&lt;div&gt;Valid time &lt;br&gt;&lt;/div&gt;&lt;div&gt;format&lt;br&gt;&lt;/div&gt;" style="rhombus;whiteSpace=wrap;html=1;" vertex="1" parent="WIyWlLk6GJQsqaUBKTNV-1">
          <mxGeometry x="190" y="686.88" width="80" height="80" as="geometry" />
        </mxCell>
        <mxCell id="7J9RRrQDICWOLUso8od0-35" value="Toast(Wrong time format)" style="whiteSpace=wrap;html=1;rounded=1;" vertex="1" parent="WIyWlLk6GJQsqaUBKTNV-1">
          <mxGeometry x="30" y="703.75" width="90" height="46.25" as="geometry" />
        </mxCell>
        <mxCell id="7J9RRrQDICWOLUso8od0-39" value="&lt;div&gt;REMOTE&lt;/div&gt;&lt;div&gt;PC&lt;br&gt;SERVER&lt;br&gt;&lt;/div&gt;" style="whiteSpace=wrap;html=1;aspect=fixed;" vertex="1" parent="WIyWlLk6GJQsqaUBKTNV-1">
          <mxGeometry x="459" y="720" width="100" height="100" as="geometry" />
        </mxCell>
        <mxCell id="7J9RRrQDICWOLUso8od0-41" value="Send packet" style="text;html=1;align=center;verticalAlign=middle;resizable=0;points=[];autosize=1;strokeColor=none;fillColor=none;" vertex="1" parent="WIyWlLk6GJQsqaUBKTNV-1">
          <mxGeometry x="369" y="711.88" width="90" height="30" as="geometry" />
        </mxCell>
        <mxCell id="7J9RRrQDICWOLUso8od0-44" value="" style="endArrow=none;dashed=1;html=1;rounded=0;entryX=-0.01;entryY=0.82;entryDx=0;entryDy=0;entryPerimeter=0;" edge="1" parent="WIyWlLk6GJQsqaUBKTNV-1" target="7J9RRrQDICWOLUso8od0-39">
          <mxGeometry width="50" height="50" relative="1" as="geometry">
            <mxPoint x="230" y="800" as="sourcePoint" />
            <mxPoint x="620" y="800" as="targetPoint" />
          </mxGeometry>
        </mxCell>
        <mxCell id="7J9RRrQDICWOLUso8od0-45" value="Reply packet" style="text;html=1;align=center;verticalAlign=middle;resizable=0;points=[];autosize=1;strokeColor=none;fillColor=none;" vertex="1" parent="WIyWlLk6GJQsqaUBKTNV-1">
          <mxGeometry x="320" y="766.88" width="90" height="30" as="geometry" />
        </mxCell>
        <mxCell id="7J9RRrQDICWOLUso8od0-56" value="" style="endArrow=classic;html=1;rounded=0;" edge="1" parent="WIyWlLk6GJQsqaUBKTNV-1">
          <mxGeometry width="50" height="50" relative="1" as="geometry">
            <mxPoint x="230" y="800" as="sourcePoint" />
            <mxPoint x="230" y="850" as="targetPoint" />
            <Array as="points" />
          </mxGeometry>
        </mxCell>
        <mxCell id="7J9RRrQDICWOLUso8od0-59" value="" style="edgeStyle=orthogonalEdgeStyle;rounded=0;orthogonalLoop=1;jettySize=auto;html=1;" edge="1" parent="WIyWlLk6GJQsqaUBKTNV-1" source="7J9RRrQDICWOLUso8od0-57" target="7J9RRrQDICWOLUso8od0-58">
          <mxGeometry relative="1" as="geometry" />
        </mxCell>
        <mxCell id="7J9RRrQDICWOLUso8od0-61" value="Yes" style="edgeLabel;html=1;align=center;verticalAlign=middle;resizable=0;points=[];" vertex="1" connectable="0" parent="7J9RRrQDICWOLUso8od0-59">
          <mxGeometry x="-0.2352" y="-1" relative="1" as="geometry">
            <mxPoint y="-14" as="offset" />
          </mxGeometry>
        </mxCell>
        <mxCell id="7J9RRrQDICWOLUso8od0-63" value="" style="edgeStyle=orthogonalEdgeStyle;rounded=0;orthogonalLoop=1;jettySize=auto;html=1;" edge="1" parent="WIyWlLk6GJQsqaUBKTNV-1" source="7J9RRrQDICWOLUso8od0-57" target="7J9RRrQDICWOLUso8od0-62">
          <mxGeometry relative="1" as="geometry" />
        </mxCell>
        <mxCell id="7J9RRrQDICWOLUso8od0-57" value="&lt;div&gt;Check reply&lt;/div&gt;&lt;div&gt;Packet&lt;br&gt;&lt;/div&gt;" style="rhombus;whiteSpace=wrap;html=1;" vertex="1" parent="WIyWlLk6GJQsqaUBKTNV-1">
          <mxGeometry x="185" y="850" width="90" height="90" as="geometry" />
        </mxCell>
        <mxCell id="7J9RRrQDICWOLUso8od0-58" value="Toast (status)" style="whiteSpace=wrap;html=1;rounded=1;" vertex="1" parent="WIyWlLk6GJQsqaUBKTNV-1">
          <mxGeometry x="40" y="872.5" width="80" height="45" as="geometry" />
        </mxCell>
        <mxCell id="7J9RRrQDICWOLUso8od0-62" value="&lt;div&gt;Disable Time input field, Submit button&lt;/div&gt;&lt;div&gt;Update device status on text view&lt;br&gt;&lt;/div&gt;" style="shape=process;whiteSpace=wrap;html=1;backgroundOutline=1;" vertex="1" parent="WIyWlLk6GJQsqaUBKTNV-1">
          <mxGeometry x="336.5" y="865" width="173.5" height="60" as="geometry" />
        </mxCell>
        <mxCell id="7J9RRrQDICWOLUso8od0-64" value="&lt;div&gt;No&lt;/div&gt;&lt;div&gt;&lt;br&gt;&lt;/div&gt;" style="text;html=1;align=center;verticalAlign=middle;resizable=0;points=[];autosize=1;strokeColor=none;fillColor=none;" vertex="1" parent="WIyWlLk6GJQsqaUBKTNV-1">
          <mxGeometry x="280" y="870" width="40" height="40" as="geometry" />
        </mxCell>
        <mxCell id="7J9RRrQDICWOLUso8od0-69" value="" style="edgeStyle=orthogonalEdgeStyle;rounded=0;orthogonalLoop=1;jettySize=auto;html=1;" edge="1" parent="WIyWlLk6GJQsqaUBKTNV-1" source="7J9RRrQDICWOLUso8od0-68">
          <mxGeometry relative="1" as="geometry">
            <mxPoint x="335" y="730" as="targetPoint" />
          </mxGeometry>
        </mxCell>
        <mxCell id="7J9RRrQDICWOLUso8od0-68" value="Cancel " style="rounded=0;whiteSpace=wrap;html=1;" vertex="1" parent="WIyWlLk6GJQsqaUBKTNV-1">
          <mxGeometry x="290" y="600" width="90" height="30" as="geometry" />
        </mxCell>
      </root>
    </mxGraphModel>
  </diagram>
</mxfile>
